HIERARCHY
ROOT Hips
{
	OFFSET 0.000000 0.000000 0.000000
	CHANNELS 6 Xposition Yposition Zposition Zrotation Yrotation Xrotation 
	JOINT LHipJoint
	{
		OFFSET 0.000000 0.000000 0.000000
		CHANNELS 3 Zrotation Yrotation Xrotation
		JOINT LeftUpLeg
		{
			OFFSET 1.363060 -1.794630 0.839290
			CHANNELS 3 Zrotation Yrotation Xrotation
			JOINT LeftLeg
			{
				OFFSET 2.448110 -6.726130 0.000000
				CHANNELS 3 Zrotation Yrotation Xrotation
				JOINT LeftFoot
				{
					OFFSET 2.562200 -7.039590 0.000000
					CHANNELS 3 Zrotation Yrotation Xrotation
					JOINT LeftToeBase
					{
						OFFSET 0.157640 -0.433110 2.322550
						CHANNELS 3 Zrotation Yrotation Xrotation
						End Site
						{
							OFFSET 0.000000 0.000000 0.000000
						}
					}
				}
			}
		}
	}
	JOINT RHipJoint
	{
		OFFSET 0.000000 0.000000 0.000000
		CHANNELS 3 Zrotation Yrotation Xrotation
		JOINT RightUpLeg
		{
			OFFSET -1.305520 -1.794630 0.839290
			CHANNELS 3 Zrotation Yrotation Xrotation
			JOINT RightLeg
			{
				OFFSET -2.542530 -6.985550 0.000000
				CHANNELS 3 Zrotation Yrotation Xrotation
				JOINT RightFoot
				{
					OFFSET -2.568260 -7.056230 0.000000
					CHANNELS 3 Zrotation Yrotation Xrotation
					JOINT RightToeBase
					{
						OFFSET -0.164730 -0.452590 2.363150
						CHANNELS 3 Zrotation Yrotation Xrotation
						End Site
						{
							OFFSET 0.000000 0.000000 0.000000
						}
					}
				}
			}
		}
	}
}
MOTION
Frames: 14
Frame Time: 0.008333
2.292658 16.465761 -1.503905 -165.280749 82.312322 -147.945741 -12.379709 2.719502 -1.403025 -4.284021 0.210869 -7.014994 0.003551 2.687496 42.776487 1.347162 7.616686 4.768624 1.317000 -0.000000 -73.135700 8.271956 1.002210 0.187739 4.419971 -0.301278 -44.953640 2.582146 -2.069157 26.008026 1.385039 9.954714 7.801030 2.339600 0.000000 -56.822100
2.466418 16.469041 -1.529093 -163.852159 81.612058 -146.508504 -12.703278 2.613037 -1.487322 -3.644420 0.883788 -8.916648 0.233917 2.872510 46.107474 1.643436 9.635096 5.696495 1.821799 0.000000 -67.184100 8.106975 0.912577 0.041744 5.062000 -0.439925 -44.734779 2.570041 -2.122702 27.301052 1.274527 9.066409 6.500037 1.907600 0.000000 -56.558800
2.636771 16.477858 -1.551588 -163.271156 80.849906 -145.899228 -12.971339 2.477236 -1.566251 -3.160902 1.492278 -10.874655 0.436935 3.044333 49.361069 1.956880 11.835802 6.232950 2.381000 -0.000000 -59.860400 7.969331 0.828169 -0.079395 5.592671 -0.611771 -44.410032 2.568249 -2.149295 28.357859 1.151847 8.163633 5.039609 1.495400 0.000000 -56.688700
2.804275 16.492062 -1.571345 -163.387140 80.031683 -145.962171 -13.178872 2.324903 -1.631667 -2.846242 2.000944 -12.874509 0.613469 3.206239 52.481318 2.270532 14.087729 6.363380 2.930600 -0.000000 -52.026800 7.866431 0.753465 -0.176925 5.996798 -0.822374 -43.984258 2.573144 -2.151110 29.165766 1.018859 7.274787 3.534932 1.129800 -0.000000 -57.074700
2.969370 16.511511 -1.588565 -164.077035 79.160275 -146.569785 -13.324701 2.166327 -1.675444 -2.711912 2.374046 -14.898086 0.768912 3.357472 55.415468 2.570236 16.262872 6.159586 3.415201 0.000000 -44.724000 7.803183 0.691234 -0.254052 6.261766 -1.081579 -43.466102 2.580680 -2.131408 29.720140 0.879478 6.422704 2.093473 0.825201 0.000000 -57.586900
3.132501 16.536091 -1.604027 -165.191575 78.236732 -147.565016 -13.416337 2.008568 -1.688800 -2.750614 2.588102 -16.941684 0.908817 3.495714 58.130704 2.843085 18.239410 5.727007 3.796200 -0.000000 -38.716500 7.776797 0.640200 -0.312233 6.392796 -1.390204 -42.869070 2.587986 -2.092121 30.015338 0.738213 5.613722 0.809308 0.583000 0.000000 -58.119000
3.293776 16.565668 -1.618224 -166.645243 77.266591 -148.864971 -13.456624 1.856588 -1.670979 -2.968522 2.635301 -18.984046 1.036654 3.617162 60.603510 3.077737 19.920263 5.155564 4.053200 0.000000 -34.244600 7.788884 0.601019 -0.357573 6.384847 -1.763099 -42.201106 2.591581 -2.037657 30.064501 0.600921 4.861164 -0.253525 0.398300 -0.000000 -58.597700
3.453321 16.600045 -1.632281 -168.298722 76.256120 -150.331616 -13.456724 1.712520 -1.623161 -3.343931 2.532854 -21.018430 1.153062 3.720348 62.822353 3.263607 21.222339 4.500978 4.173600 0.000000 -31.127800 7.831905 0.569950 -0.393417 6.258544 -2.197439 -41.468760 2.590581 -1.969667 29.875110 0.471483 4.160192 -1.055708 0.258900 -0.000001 -58.981900
3.611039 16.639043 -1.647154 -170.035992 75.217213 -151.857670 -13.426054 1.576900 -1.551176 -3.852403 2.311111 -23.026718 1.256729 3.804539 64.770378 3.393713 22.096203 3.813948 4.163000 0.000000 -29.100200 7.898468 0.543922 -0.425339 6.036814 -2.690242 -40.669683 2.585028 -1.889680 29.461136 0.352420 3.505721 -1.588777 0.151999 0.000000 -59.259200
3.766753 16.682405 -1.663862 -171.750369 74.164710 -153.347754 -13.373893 1.448998 -1.462990 -4.461713 2.009283 -24.987951 1.345031 3.870252 66.428688 3.464682 22.523823 3.144582 4.043000 -0.000000 -27.923100 7.979577 0.519410 -0.459106 5.750461 -3.232400 -39.796549 2.576402 -1.798261 28.836899 0.244197 2.888484 -1.869399 0.065000 0.000000 -59.437301
3.920206 16.729841 -1.683147 -173.359711 73.115975 -154.734851 -13.307616 1.327615 -1.367968 -5.137505 1.669380 -26.876355 1.414899 3.918678 67.777714 3.477252 22.520908 2.543940 3.847500 0.000000 -27.435600 8.066901 0.493310 -0.500765 5.431030 -3.812652 -38.837023 2.566937 -1.695583 28.017923 0.145971 2.299891 -1.933277 -0.012000 0.000000 -59.537000
4.071215 16.781033 -1.705583 -174.806918 72.088476 -155.977107 -13.232944 1.211297 -1.275955 -5.846816 1.332598 -28.666267 1.463473 3.951444 68.801789 3.436191 22.133564 2.053910 3.613200 0.000000 -27.521400 8.153137 0.462901 -0.555879 5.107954 -4.418478 -37.777325 2.559206 -1.581647 27.019708 0.056211 1.732970 -1.826426 -0.086400 0.000000 -59.584200
4.219718 16.835496 -1.731374 -176.062828 71.095356 -157.057629 -13.153740 1.098988 -1.193622 -6.561776 1.032119 -30.340139 1.488852 3.969848 69.493378 3.350513 21.435777 1.701053 3.372000 0.000001 -28.070200 8.232866 0.425721 -0.626792 4.805281 -5.038018 -36.609654 2.555500 -1.456344 25.857701 -0.026574 1.183256 -1.595808 -0.162700 -0.000000 -59.611800
4.365737 16.892699 -1.760502 -177.121044 70.147668 -157.982006 -13.072162 0.989337 -1.128866 -7.262489 0.796525 -31.879140 1.489937 3.975310 69.852736 3.232497 20.521286 1.487756 3.144800 -0.000000 -28.953100 8.302931 0.380558 -0.716554 4.537755 -5.662462 -35.324979 2.557430 -1.320338 24.548262 -0.102910 0.653056 -1.284314 -0.242499 0.000000 -59.642400
